<svg width="16" height="16" viewBox="0 0 16 16" fill="none" xmlns="http://www.w3.org/2000/svg">
<path d="M15.75 15.75C15.3833 16.0833 15.0167 16.0833 14.65 15.75L8 9.15L1.35 15.75C0.983333 16.0833 0.616667 16.0833 0.25 15.75C-0.0833333 15.3833 -0.0833333 15.0167 0.25 14.65L6.85 8L0.25 1.35C-0.0833333 0.983333 -0.0833333 0.616667 0.25 0.25C0.616667 -0.0833333 0.983333 -0.0833333 1.35 0.25L8 6.85L14.65 0.25C15.0167 -0.0833333 15.3833 -0.0833333 15.75 0.25C16.0833 0.616667 16.0833 0.983333 15.75 1.35L9.15 8L15.75 14.65C16.0833 15.0167 16.0833 15.3833 15.75 15.75Z" fill="#676767"/>
</svg>
