<svg width="20" height="21" viewBox="0 0 20 21" fill="none" xmlns="http://www.w3.org/2000/svg">
<g clip-path="url(#clip0_2781_7852)">
<path d="M18.4219 1.34766C17.5664 0.492187 16.1836 0.492187 15.3281 1.34766L14.1523 2.51953L17.9766 6.34375L19.1523 5.16797C20.0078 4.3125 20.0078 2.92969 19.1523 2.07422L18.4219 1.34766ZM6.73438 9.94141C6.49609 10.1797 6.3125 10.4727 6.20703 10.7969L5.05078 14.2656C4.9375 14.6016 5.02734 14.9727 5.27734 15.2266C5.52734 15.4805 5.89844 15.5664 6.23828 15.4531L9.70703 14.2969C10.0273 14.1914 10.3203 14.0078 10.5625 13.7695L17.0977 7.23047L13.2695 3.40234L6.73438 9.94141ZM3.75 3C1.67969 3 0 4.67969 0 6.75V16.75C0 18.8203 1.67969 20.5 3.75 20.5H13.75C15.8203 20.5 17.5 18.8203 17.5 16.75V13C17.5 12.3086 16.9414 11.75 16.25 11.75C15.5586 11.75 15 12.3086 15 13V16.75C15 17.4414 14.4414 18 13.75 18H3.75C3.05859 18 2.5 17.4414 2.5 16.75V6.75C2.5 6.05859 3.05859 5.5 3.75 5.5H7.5C8.19141 5.5 8.75 4.94141 8.75 4.25C8.75 3.55859 8.19141 3 7.5 3H3.75Z" fill="#C2C2C2"/>
</g>
<defs>
<clipPath id="clip0_2781_7852">
<rect width="20" height="20" fill="white" transform="translate(0 0.5)"/>
</clipPath>
</defs>
</svg>
